PathFileType	4	(X/Y/Z)	SUBJ11_1_walk_RCNL2025.trc
DataRate	CameraRate	NumFrames	NumMarkers	Units	OrigDataRate	OrigDataStartFrame	OrigNumFrames
100	100	9	25	mm	100	222	443
Frame#	Time	R_Shoulder			L_Shoulder			C7			J_Notch			R_Elbow			L_Elbow			R_Wrist			L_Wrist			R_Asis			L_Asis			Sacral			Thoracic			Sternum			R_Thigh_Lateral			R_Knee_Lateral			R_Shank_Lateral			R_Ankle_Lateral			R_Heel			R_Toe			L_Thigh_Lateral			L_Knee_Lateral			L_Shank_Lateral			L_Ankle_Lateral			L_Heel			L_Toe		
		X1	Y1	Z1	X2	Y2	Z2	X3	Y3	Z3	X4	Y4	Z4	X5	Y5	Z5	X6	Y6	Z6	X7	Y7	Z7	X8	Y8	Z8	X9	Y9	Z9	X10	Y10	Z10	X11	Y11	Z11	X12	Y12	Z12	X13	Y13	Z13	X14	Y14	Z14	X15	Y15	Z15	X16	Y16	Z16	X17	Y17	Z17	X18	Y18	Z18	X19	Y19	Z19	X20	Y20	Z20	X21	Y21	Z21	X22	Y22	Z22	X23	Y23	Z23	X24	Y24	Z24	X25	Y25	Z25
222	2.21000000	-909.322205	1451.589111	203.594208	-888.394653	1447.264648	-192.964386	-943.614990	1496.144165	5.993791	-795.962341	1394.067749	19.490238	-948.761902	1109.240234	290.486328	-955.529724	1105.214600	-262.189484	-854.354675	864.848145	274.974808	-935.517303	841.907104	-244.527290	-844.241333	969.447754	167.286133	-823.322815	975.036987	-125.190041	-1010.097717	997.414185	2.577339	-1019.685486	1314.071167	0.466067	-735.038025	1193.331421	24.049528	-916.993652	620.982239	195.701111	-897.237366	468.359253	126.647804	-920.467834	261.531921	154.252686	-948.740112	64.620583	80.176399	-1007.256531	51.818375	29.957127	-812.008545	46.931465	50.522758	-822.064453	639.155518	-226.149750	-796.255859	493.873566	-149.873810	-904.619507	320.831604	-186.057785	-1015.279907	161.629181	-117.865524	-1063.073853	181.678055	-61.017490	-914.498718	71.880959	-95.303032
223	2.22000000	-897.711975	1451.869263	203.558456	-877.890503	1446.596558	-193.085815	-932.340454	1495.998413	6.095374	-784.715820	1393.764282	19.307180	-935.590637	1110.011230	292.683563	-951.160156	1105.476562	-261.287537	-836.233490	867.581116	277.168678	-933.461884	842.109436	-243.331787	-834.200012	969.024353	168.025375	-812.108521	974.851562	-124.420364	-999.327209	997.321594	2.196335	-1008.654663	1313.992188	1.015107	-724.120117	1192.924438	24.390472	-910.473755	620.802856	195.176926	-893.721375	468.151703	125.700844	-918.509277	261.516754	153.598007	-948.489075	64.782288	79.851395	-1007.030884	52.137215	29.601177	-811.811951	46.866871	50.243355	-805.737122	640.757446	-225.767838	-777.002380	495.212280	-149.144852	-878.000488	317.374573	-185.759888	-982.222839	153.754272	-118.065224	-1031.165161	171.634964	-61.361073	-877.576721	68.853889	-95.335686
224	2.23000000	-886.109558	1451.851807	203.495667	-867.334351	1445.682007	-193.238159	-921.018494	1495.622437	6.139647	-773.464233	1393.184937	19.110056	-922.415955	1110.511719	294.815704	-946.496155	1105.593262	-260.433807	-818.214264	870.111267	279.325562	-931.078461	842.171509	-242.166473	-824.114563	968.417908	168.632263	-800.962585	974.370056	-123.770576	-988.613892	996.982727	1.843662	-997.646179	1313.704834	1.490935	-713.239258	1192.213379	24.723867	-903.667908	620.509155	194.727997	-890.123718	467.905182	124.800156	-916.535522	261.465546	152.975662	-948.239929	64.925156	79.522919	-1006.833130	52.452415	29.260227	-811.648865	46.809952	49.998970	-789.916260	641.989807	-225.283066	-758.375549	496.318665	-148.293396	-851.751770	313.954620	-185.433182	-948.557129	145.678101	-118.250977	-998.496704	161.143646	-61.681831	-840.087219	65.982384	-95.449631
225	2.24000000	-874.518311	1451.561279	203.396759	-856.730896	1444.547974	-193.411682	-909.653870	1495.023804	6.114172	-762.210083	1392.340210	18.892302	-909.212891	1110.763306	296.875977	-941.468506	1105.587524	-259.624969	-800.322601	872.434692	281.437469	-928.358673	842.090363	-241.023735	-813.959839	967.637207	169.074509	-789.925476	973.595886	-123.256454	-977.941284	996.400085	1.553525	-986.657776	1313.215820	1.881853	-702.400940	1191.217651	25.030251	-896.643494	620.112915	194.367722	-886.476196	467.628571	123.988174	-914.576721	261.382782	152.424072	-948.005554	65.049080	79.213707	-1006.671631	52.764389	28.953720	-811.538025	46.769833	49.826168	-774.625854	642.798157	-224.667023	-740.416138	497.145294	-147.346878	-825.843079	310.519287	-185.076828	-914.302002	137.517929	-118.403381	-965.054810	150.345581	-61.989403	-802.092468	63.392715	-95.605705
226	2.25000000	-862.938843	1451.022705	203.251556	-846.077209	1443.220947	-193.598618	-898.250366	1494.211426	6.014792	-750.952881	1391.237549	18.651684	-895.965271	1110.789185	298.855469	-936.050049	1105.475830	-258.855835	-782.582825	874.550476	283.497681	-925.293671	841.866821	-239.895500	-803.713806	966.690674	169.333694	-779.013977	972.537720	-122.895653	-967.291016	995.575684	1.352126	-975.684753	1312.531982	2.180297	-691.608948	1189.959229	25.290272	-889.459717	619.626892	194.107147	-882.797119	467.328369	123.296486	-912.647583	261.270142	151.972702	-947.795288	65.155067	78.943596	-1006.550720	53.076176	28.693518	-811.479675	46.745544	49.727036	-759.902588	643.144409	-223.901764	-723.155151	497.637543	-146.336990	-800.204346	307.002930	-184.681152	-879.473755	129.394791	-118.497200	-930.846008	139.402130	-62.252438	-763.659668	61.211277	-95.761711
227	2.26000000	-851.368042	1450.259521	203.051529	-835.362793	1441.723389	-193.795685	-886.810791	1493.194824	5.845413	-739.691956	1389.885010	18.387175	-882.667908	1110.610474	300.742889	-930.227478	1105.254883	-258.119629	-765.016968	876.459991	285.501419	-921.865753	841.502167	-238.778023	-793.352173	965.587402	169.410736	-768.223022	971.206177	-122.705177	-956.642761	994.512512	1.255196	-964.718811	1311.660034	2.383793	-680.860352	1188.460327	25.484127	-882.156372	619.058289	193.953918	-879.089294	467.006317	122.743500	-910.749573	261.128204	151.639511	-947.613037	65.245369	78.726715	-1006.470581	53.392597	28.485165	-811.461548	46.729855	49.680229	-745.778503	643.013855	-222.991501	-706.612732	497.740906	-145.299164	-774.754761	303.356628	-184.233582	-844.093262	121.436584	-118.506554	-895.900024	128.488144	-62.419327	-724.864746	59.564247	-95.867096
228	2.27000000	-839.797363	1449.291382	202.791168	-824.575867	1440.073486	-194.003967	-875.336670	1491.983398	5.615918	-728.434692	1388.288208	18.096159	-869.325806	1110.243896	302.526642	-923.973755	1104.902344	-257.411163	-747.644440	878.164764	287.445251	-918.040771	840.996948	-237.675842	-782.844116	964.337524	169.327835	-757.533936	969.613831	-122.693726	-945.975830	993.213623	1.266937	-953.748474	1310.605957	2.494280	-670.141907	1186.742920	25.591398	-874.751221	618.406555	193.910004	-875.337708	466.658325	122.334099	-908.871948	260.957153	151.429245	-947.457031	65.324142	78.569519	-1006.426636	53.720177	28.329407	-811.472229	46.716293	49.664261	-732.268616	642.409729	-221.964035	-690.798645	497.408508	-144.269196	-749.429749	299.567078	-183.725037	-808.198914	113.781113	-118.411285	-860.268860	117.783478	-62.453960	-685.799438	58.577629	-95.862846
229	2.28000000	-828.212158	1448.134155	202.468567	-813.712097	1438.288086	-194.227097	-863.827637	1490.585815	5.339580	-717.192078	1386.453491	17.773947	-855.951294	1109.701904	304.196564	-917.257751	1104.392212	-256.728546	-730.483704	879.662781	289.325485	-913.776733	840.349304	-236.600182	-772.157532	962.951965	169.123306	-746.926636	967.774536	-122.855286	-935.270935	991.682007	1.378995	-942.760925	1309.375488	2.517557	-659.433167	1184.828613	25.593536	-867.249268	617.666565	193.970703	-871.508850	466.273590	122.061005	-906.992126	260.755463	151.333313	-947.320557	65.397675	78.470161	-1006.409363	54.067474	28.222992	-811.504517	46.701584	49.665104	-719.370422	641.338562	-220.864105	-675.712158	496.607361	-143.276688	-724.200256	295.664856	-183.155197	-771.857910	106.577019	-118.201729	-824.029053	107.470406	-62.348808	-646.577026	58.378311	-95.689964
230	2.29000000	-816.593445	1446.799438	202.085403	-802.775208	1436.380737	-194.469269	-852.281555	1489.010254	5.030459	-705.963562	1384.398071	17.414429	-842.560913	1108.992188	305.744934	-910.066345	1103.704590	-256.074829	-713.553253	880.945801	291.137238	-909.044128	839.552277	-235.564926	-761.275452	961.440552	168.836929	-736.388794	965.700989	-123.169777	-924.511963	989.921387	1.570300	-931.742676	1307.974365	2.462990	-648.711792	1182.737793	25.477535	-859.653931	616.832886	194.123840	-867.554016	465.836182	121.907356	-905.075073	260.519409	151.332306	-947.193420	65.474556	78.418579	-1006.404968	54.446098	28.159164	-811.553955	46.684814	49.673634	-707.076294	639.797363	-219.743011	-661.341614	495.323425	-142.338379	-699.080139	291.722778	-182.533798	-735.173157	99.981468	-117.881714	-787.288757	97.731506	-62.121330	-607.338867	59.090591	-95.304359
